<svg width="521" height="50" viewBox="0 0 521 50" fill="none" xmlns="http://www.w3.org/2000/svg">
<path d="M37.052 18.75C36.37 13.914 34.014 9.45 30.356 6.226C27.008 3.25 22.73 1.452 18.328 1.142L0.1 1.08V9.76H17.274C17.894 9.822 18.514 9.884 19.072 10.008C20.808 10.38 22.42 11.124 23.846 12.178C26.202 13.914 27.752 16.456 28.372 19.308C28.496 20.052 28.558 20.858 28.558 21.602C28.558 22.47 28.496 23.276 28.31 24.082C27.318 28.856 23.412 32.576 18.576 33.32H8.78V15.836H0.1V42H19.134H19.258C28.372 40.884 35.75 33.754 37.052 24.64C37.176 23.648 37.3 22.656 37.3 21.602C37.3 20.672 37.238 19.68 37.052 18.75ZM43.5121 1.018V42H52.1921V1.018H43.5121ZM82.5866 17.2H70.8066C68.7606 17.2 67.0866 15.526 67.0866 13.48C67.0866 11.434 68.7606 9.76 70.8066 9.76H84.3846C85.7486 10.194 86.6786 11.434 86.6786 12.922H95.1726C95.1726 11.806 95.0486 10.752 94.7386 9.76C93.3746 4.738 88.7866 1.08 83.3306 1.08H70.8066C66.3426 1.08 62.1886 3.436 60.0186 7.342C58.9646 9.202 58.4066 11.31 58.4066 13.48C58.4066 15.65 58.9646 17.758 60.0186 19.618C60.5146 20.486 61.0726 21.23 61.6926 21.912C64.0486 24.392 67.3346 25.88 70.8066 25.88H82.5866C84.6326 25.88 86.2446 27.554 86.2446 29.6C86.2446 31.646 84.6326 33.32 82.5866 33.32H69.1326C67.8306 32.886 66.9006 31.646 66.9006 30.158H58.4066C58.4066 31.274 58.5306 32.328 58.7786 33.32C60.2046 38.342 64.7926 42 70.2486 42H82.5866C86.9886 42 91.1426 39.644 93.3126 35.8C94.4286 33.878 94.9866 31.77 94.9866 29.6C94.9866 27.43 94.4286 25.322 93.3126 23.462C91.1426 19.618 86.9886 17.2 82.5866 17.2ZM129.685 25.694L129.251 26.624C127.267 30.716 123.113 33.32 118.587 33.32C113.007 33.32 108.109 29.352 106.993 23.896C106.807 23.152 106.745 22.284 106.745 21.478C106.745 20.672 106.807 19.928 106.993 19.122C108.047 13.604 112.945 9.636 118.587 9.636C123.361 9.636 127.639 12.488 129.499 16.828L129.933 17.82H138.923L138.303 15.774C137.125 11.558 134.521 7.776 131.049 5.11C127.453 2.382 123.113 0.955996 118.587 0.955996C113.627 0.955996 108.791 2.754 105.071 6.04C101.351 9.264 98.9328 13.728 98.2508 18.564C98.1268 19.556 98.0648 20.486 98.0648 21.478C98.0648 22.47 98.1268 23.524 98.2508 24.516C98.9328 29.352 101.413 33.754 105.071 36.978C108.853 40.264 113.627 42 118.587 42C122.989 42 127.205 40.636 130.801 38.032C134.273 35.428 136.815 31.956 138.117 27.864L138.799 25.694H129.685ZM165.568 1.204C154.284 1.204 145.17 10.38 145.17 21.602C145.17 32.886 154.284 42 165.568 42C176.79 42 185.966 32.886 185.966 21.602C185.966 10.38 176.79 1.204 165.568 1.204ZM177.41 21.602C177.41 28.174 172.078 33.506 165.568 33.506C158.996 33.506 153.664 28.174 153.664 21.602C153.664 15.092 158.996 9.76 165.568 9.76C172.078 9.76 177.41 15.092 177.41 21.602ZM195.201 1.638L194.891 1.08H184.041L185.219 3.188L198.611 27.43L204.067 17.634L195.201 1.638ZM220.187 1.08L219.877 1.638L210.391 18.812L208.593 22.036L207.539 23.896L202.083 33.692L206.485 42H208.779L229.921 3.188L231.099 1.08H220.187ZM235.991 1.08V2.692V9.76H272.571V1.08H235.991ZM244.671 24.516H268.913V15.836H244.671L235.991 15.774V33.32V34.932V42H272.571V33.32H244.671V24.516ZM316.865 39.52L305.147 20.3C305.209 20.3 305.271 20.238 305.333 20.176L305.395 20.114C305.457 20.114 305.519 20.052 305.519 19.99C305.643 19.928 305.705 19.866 305.829 19.804C305.891 19.742 306.015 19.618 306.139 19.556C306.139 19.494 306.201 19.494 306.201 19.494C306.263 19.432 306.387 19.308 306.449 19.246C306.697 18.998 306.945 18.812 307.255 18.502C310.045 15.712 312.029 12.24 312.835 8.396C313.207 6.908 313.331 5.42 313.331 3.932C313.331 3.436 313.331 2.94 313.269 2.506L313.207 0.955996H278.797V9.636H297.397H303.163C302.605 10.628 301.923 11.558 301.117 12.302C300.063 13.356 298.885 14.162 297.521 14.782C297.459 14.782 297.459 14.782 297.397 14.844C295.971 15.402 294.421 15.712 292.871 15.712H278.797V42H287.477V24.454H292.871C292.995 24.454 293.119 24.392 293.243 24.392H293.305H293.367H293.491C293.615 24.392 293.677 24.392 293.801 24.392C293.863 24.392 293.925 24.392 293.925 24.392C294.049 24.392 294.173 24.392 294.297 24.392H294.421L294.483 24.33C294.607 24.33 294.731 24.33 294.917 24.33C295.041 24.33 295.165 24.268 295.351 24.268C295.413 24.268 295.475 24.268 295.537 24.268C295.661 24.206 295.785 24.206 295.909 24.206C295.971 24.206 296.033 24.206 296.095 24.144C296.157 24.144 296.281 24.144 296.405 24.144C296.653 24.082 296.901 24.02 297.149 23.958L307.689 41.256L308.185 42H318.353L316.865 39.52ZM335.419 35.49C335.047 36.9367 334.572 38.5073 333.993 40.202C333.415 41.8553 332.795 43.5087 332.133 45.162C331.472 46.8567 330.79 48.4687 330.087 49.998H323.453C323.867 48.3447 324.259 46.6087 324.631 44.79C325.003 43.0127 325.355 41.256 325.685 39.52C326.016 37.784 326.285 36.2133 326.491 34.808H334.985L335.419 35.49ZM369.073 17.448V24.516V42H377.753V24.516H401.995V15.836H369.073V17.448ZM405.653 9.76V1.08H369.073V9.76H405.653ZM411.879 1.018V42H420.559V1.018H411.879ZM426.774 42H435.454V28.174L426.774 19.494V42ZM451.264 1.018V23.09L428.882 0.769999H426.774V1.824V5.73V10.938L435.454 19.618L441.406 25.57L451.698 35.862L457.836 42H459.944V1.018H451.264ZM503.081 18.75C502.399 13.914 500.043 9.45 496.385 6.226C493.037 3.25 488.759 1.452 484.357 1.142L466.129 1.08V9.76H483.303C483.923 9.822 484.543 9.884 485.101 10.008C486.837 10.38 488.449 11.124 489.875 12.178C492.231 13.914 493.781 16.456 494.401 19.308C494.525 20.052 494.587 20.858 494.587 21.602C494.587 22.47 494.525 23.276 494.339 24.082C493.347 28.856 489.441 32.576 484.605 33.32H474.809V15.836H466.129V42H485.163H485.287C494.401 40.884 501.779 33.754 503.081 24.64C503.205 23.648 503.329 22.656 503.329 21.602C503.329 20.672 503.267 19.68 503.081 18.75ZM520.329 35.49C519.957 36.9367 519.482 38.5073 518.903 40.202C518.325 41.8553 517.705 43.5087 517.043 45.162C516.382 46.8567 515.7 48.4687 514.997 49.998H508.363C508.777 48.3447 509.169 46.6087 509.541 44.79C509.913 43.0127 510.265 41.256 510.595 39.52C510.926 37.784 511.195 36.2133 511.401 34.808H519.895L520.329 35.49Z" fill="white"/>
</svg>
