<svg width="123" height="18" viewBox="0 0 123 18" fill="none" xmlns="http://www.w3.org/2000/svg">
<path d="M0.3 7.704V10.668V18H3.94V10.668H14.106V7.028H0.3V7.704ZM15.64 4.48V0.839999H0.3V4.48H15.64ZM13.9476 16.986L13.4016 18H17.9776L18.1596 17.662L21.8776 10.928L19.5896 6.82L13.9476 16.986ZM32.7196 16.986L25.4396 3.856L23.9316 1.152L23.7756 0.787998H22.8916L22.7096 1.152L21.2276 3.856L21.0456 4.194L23.3336 8.328L23.3856 8.432L25.0756 11.474L28.5076 17.662L28.6896 18H33.2656L32.7196 16.986ZM39.5884 11.266H46.5304C47.2584 11.422 47.7524 12.072 47.7524 12.8C47.7524 13.502 47.2584 14.126 46.5824 14.308H39.5884V11.266ZM50.7424 10.252C50.4564 9.732 50.0924 9.264 49.6504 8.874C49.5984 8.822 49.5204 8.77 49.4684 8.718C49.4944 8.692 49.5204 8.64 49.5464 8.588C49.5464 8.562 49.5464 8.562 49.5724 8.536C49.9884 7.782 50.2224 6.898 50.2224 5.988C50.2224 5.104 49.9884 4.246 49.5724 3.466C49.5724 3.44 49.5464 3.414 49.5204 3.388C48.6104 1.776 46.8684 0.787998 44.9964 0.787998H35.9484V4.48H39.5884H45.4124C46.0884 4.662 46.5824 5.286 46.5824 5.988C46.5824 6.742 46.0364 7.392 45.3084 7.548H35.9484V18H44.9964C45.2044 18 45.3864 18 45.5944 17.974C45.8024 18 45.9844 18 46.1924 18C48.0904 18 49.8324 16.986 50.7424 15.322C51.1844 14.568 51.4184 13.684 51.4184 12.8C51.4184 11.89 51.1844 11.032 50.7424 10.252ZM72.7295 0.839999L72.5475 1.23L68.6475 9.914L65.9695 4.012L64.7215 1.23L64.5395 0.839999H63.6555L63.4735 1.23L62.2255 4.012L59.5735 9.914L55.6475 1.23L55.4655 0.839999H51.4875L51.9035 1.802L59.1315 18H59.9115L64.0975 8.744L68.2315 18H69.0375L70.5195 14.646L76.2915 1.802L76.7335 0.839999H72.7295ZM78.1984 0.839999V1.516V4.48H93.5384V0.839999H78.1984ZM81.8384 10.668H92.0044V7.028H81.8384L78.1984 7.002V14.36V15.036V18H93.5384V14.36H81.8384V10.668ZM99.7896 14.36V0.709999H96.1496V18H109.8V14.36H99.7896ZM116.403 18V7.028H112.763V18H116.403ZM106.991 0.839999V4.48H112.763H116.403H122.461V0.839999H106.991Z" fill="white"/>
</svg>
