<svg width="12" height="10" viewBox="0 0 12 10" fill="none" xmlns="http://www.w3.org/2000/svg">
<path d="M11.0359 0.984549C9.73081 -0.320194 7.60769 -0.320194 6.30295 0.984549L5.9999 1.28742L5.69702 0.984549C4.39228 -0.320371 2.26898 -0.320371 0.964236 0.984549C-0.314016 2.2628 -0.322317 4.28897 0.944987 5.69773C2.10085 6.98216 5.50982 9.75713 5.65446 9.87457C5.75265 9.95439 5.8708 9.99325 5.98824 9.99325C5.99213 9.99325 5.99601 9.99325 5.99972 9.99307C6.12122 9.99872 6.24361 9.95704 6.34498 9.87457C6.48962 9.75713 9.89894 6.98217 11.0552 5.69755C12.3223 4.28897 12.314 2.2628 11.0359 0.984549ZM10.2675 4.98885C9.3663 5.99001 6.88909 8.05485 5.99972 8.78758C5.11035 8.05503 2.63367 5.99036 1.73264 4.98902C0.848561 4.0064 0.840261 2.607 1.71339 1.73388C2.15931 1.28813 2.74492 1.06508 3.33054 1.06508C3.91616 1.06508 4.50177 1.28795 4.94769 1.73388L5.61384 2.40002C5.69314 2.47932 5.79309 2.52665 5.898 2.54325C6.06824 2.5798 6.25297 2.5323 6.38542 2.4002L7.05192 1.73388C7.94394 0.842207 9.39491 0.842384 10.2864 1.73388C11.1595 2.607 11.1512 4.0064 10.2675 4.98885Z" fill="white"/>
</svg>
