<svg width="486" height="42" viewBox="0 0 486 42" fill="none" xmlns="http://www.w3.org/2000/svg">
<path d="M0.1 42H8.78V28.174L0.1 19.494V42ZM35.068 0.769999L18.638 17.2L10.516 9.078L2.208 0.769999H0.1V10.938L8.78 19.618L12.81 23.648L18.638 29.476L19.816 28.36L21.366 26.748L21.862 26.252L23.66 24.516L28.248 19.866V42H36.928V0.769999H35.068ZM61.6093 1.204C50.3253 1.204 41.2113 10.38 41.2113 21.602C41.2113 32.886 50.3253 42 61.6093 42C72.8313 42 82.0073 32.886 82.0073 21.602C82.0073 10.38 72.8313 1.204 61.6093 1.204ZM73.4513 21.602C73.4513 28.174 68.1193 33.506 61.6093 33.506C55.0373 33.506 49.7053 28.174 49.7053 21.602C49.7053 15.092 55.0373 9.76 61.6093 9.76C68.1193 9.76 73.4513 15.092 73.4513 21.602ZM88.2563 42H96.9363V28.174L88.2563 19.494V42ZM112.746 1.018V23.09L90.3643 0.769999H88.2563V1.824V5.73V10.938L96.9363 19.618L102.888 25.57L113.18 35.862L119.318 42H121.426V1.018H112.746ZM151.792 17.2H140.012C137.966 17.2 136.292 15.526 136.292 13.48C136.292 11.434 137.966 9.76 140.012 9.76H153.59C154.954 10.194 155.884 11.434 155.884 12.922H164.378C164.378 11.806 164.254 10.752 163.944 9.76C162.58 4.738 157.992 1.08 152.536 1.08H140.012C135.548 1.08 131.394 3.436 129.224 7.342C128.17 9.202 127.612 11.31 127.612 13.48C127.612 15.65 128.17 17.758 129.224 19.618C129.72 20.486 130.278 21.23 130.898 21.912C133.254 24.392 136.54 25.88 140.012 25.88H151.792C153.838 25.88 155.45 27.554 155.45 29.6C155.45 31.646 153.838 33.32 151.792 33.32H138.338C137.036 32.886 136.106 31.646 136.106 30.158H127.612C127.612 31.274 127.736 32.328 127.984 33.32C129.41 38.342 133.998 42 139.454 42H151.792C156.194 42 160.348 39.644 162.518 35.8C163.634 33.878 164.192 31.77 164.192 29.6C164.192 27.43 163.634 25.322 162.518 23.462C160.348 19.618 156.194 17.2 151.792 17.2ZM190.38 42V15.836H181.7V42H190.38ZM167.936 1.08V9.76H181.7H190.38H204.826V1.08H167.936ZM211.045 1.08V2.692V9.76H247.625V1.08H211.045ZM219.725 24.516H243.967V15.836H219.725L211.045 15.774V33.32V34.932V42H247.625V33.32H219.725V24.516ZM291.92 39.52L280.202 20.3C280.264 20.3 280.326 20.238 280.388 20.176L280.45 20.114C280.512 20.114 280.574 20.052 280.574 19.99C280.698 19.928 280.76 19.866 280.884 19.804C280.946 19.742 281.07 19.618 281.194 19.556C281.194 19.494 281.256 19.494 281.256 19.494C281.318 19.432 281.442 19.308 281.504 19.246C281.752 18.998 282 18.812 282.31 18.502C285.1 15.712 287.084 12.24 287.89 8.396C288.262 6.908 288.386 5.42 288.386 3.932C288.386 3.436 288.386 2.94 288.324 2.506L288.262 0.955996H253.852V9.636H272.452H278.218C277.66 10.628 276.978 11.558 276.172 12.302C275.118 13.356 273.94 14.162 272.576 14.782C272.514 14.782 272.514 14.782 272.452 14.844C271.026 15.402 269.476 15.712 267.926 15.712H253.852V42H262.532V24.454H267.926C268.05 24.454 268.174 24.392 268.298 24.392H268.36H268.422H268.546C268.67 24.392 268.732 24.392 268.856 24.392C268.918 24.392 268.98 24.392 268.98 24.392C269.104 24.392 269.228 24.392 269.352 24.392H269.476L269.538 24.33C269.662 24.33 269.786 24.33 269.972 24.33C270.096 24.33 270.22 24.268 270.406 24.268C270.468 24.268 270.53 24.268 270.592 24.268C270.716 24.206 270.84 24.206 270.964 24.206C271.026 24.206 271.088 24.206 271.15 24.144C271.212 24.144 271.336 24.144 271.46 24.144C271.708 24.082 271.956 24.02 272.204 23.958L282.744 41.256L283.24 42H293.408L291.92 39.52ZM326.448 42H335.128V28.174L326.448 19.494V42ZM350.938 1.018V23.09L328.556 0.769999H326.448V1.824V5.73V10.938L335.128 19.618L341.08 25.57L351.372 35.862L357.51 42H359.618V1.018H350.938ZM365.803 17.448V24.516V42H374.483V24.516H398.725V15.836H365.803V17.448ZM402.383 9.76V1.08H365.803V9.76H402.383ZM431.054 42V15.836H422.374V42H431.054ZM408.61 1.08V9.76H422.374H431.054H445.5V1.08H408.61ZM473.175 17.2H461.395C459.349 17.2 457.675 15.526 457.675 13.48C457.675 11.434 459.349 9.76 461.395 9.76H474.973C476.337 10.194 477.267 11.434 477.267 12.922H485.761C485.761 11.806 485.637 10.752 485.327 9.76C483.963 4.738 479.375 1.08 473.919 1.08H461.395C456.931 1.08 452.777 3.436 450.607 7.342C449.553 9.202 448.995 11.31 448.995 13.48C448.995 15.65 449.553 17.758 450.607 19.618C451.103 20.486 451.661 21.23 452.281 21.912C454.637 24.392 457.923 25.88 461.395 25.88H473.175C475.221 25.88 476.833 27.554 476.833 29.6C476.833 31.646 475.221 33.32 473.175 33.32H459.721C458.419 32.886 457.489 31.646 457.489 30.158H448.995C448.995 31.274 449.119 32.328 449.367 33.32C450.793 38.342 455.381 42 460.837 42H473.175C477.577 42 481.731 39.644 483.901 35.8C485.017 33.878 485.575 31.77 485.575 29.6C485.575 27.43 485.017 25.322 483.901 23.462C481.731 19.618 477.577 17.2 473.175 17.2Z" fill="white"/>
</svg>
