<svg width="78" height="11" viewBox="0 0 78 11" fill="none" xmlns="http://www.w3.org/2000/svg">
<path d="M1.136 10.376L0.8 11H3.616L3.728 10.792L6.016 6.648L4.608 4.12L1.136 10.376ZM12.688 10.376L8.208 2.296L7.28 0.632L7.184 0.407999H6.64L6.528 0.632L5.616 2.296L5.504 2.504L6.912 5.048L6.944 5.112L7.984 6.984L10.096 10.792L10.208 11H13.024L12.688 10.376ZM20.7256 6.792L20.6136 7.032C20.1016 8.088 19.0296 8.76 17.8616 8.76C16.4216 8.76 15.1576 7.736 14.8696 6.328C14.8216 6.136 14.8056 5.912 14.8056 5.704C14.8056 5.496 14.8216 5.304 14.8696 5.096C15.1416 3.672 16.4056 2.648 17.8616 2.648C19.0936 2.648 20.1976 3.384 20.6776 4.504L20.7896 4.76H23.1096L22.9496 4.232C22.6456 3.144 21.9736 2.168 21.0776 1.48C20.1496 0.775999 19.0296 0.407999 17.8616 0.407999C16.5816 0.407999 15.3336 0.872 14.3736 1.72C13.4136 2.552 12.7896 3.704 12.6136 4.952C12.5816 5.208 12.5656 5.448 12.5656 5.704C12.5656 5.96 12.5816 6.232 12.6136 6.488C12.7896 7.736 13.4296 8.872 14.3736 9.704C15.3496 10.552 16.5816 11 17.8616 11C18.9976 11 20.0856 10.648 21.0136 9.976C21.9096 9.304 22.5656 8.408 22.9016 7.352L23.0776 6.792H20.7256ZM29.1076 11V4.248H26.8676V11H29.1076ZM23.3156 0.44V2.68H26.8676H29.1076H32.8356V0.44H23.3156ZM34.4406 0.424V11H36.6806V0.424H34.4406ZM41.1644 0.584L41.0844 0.44H38.2844L38.5884 0.983999L42.0444 7.24L43.4524 4.712L41.1644 0.584ZM47.6124 0.44L47.5324 0.584L45.0844 5.016L44.6204 5.848L44.3484 6.328L42.9404 8.856L44.0764 11H44.6684L50.1244 0.983999L50.4284 0.44H47.6124ZM52.05 0.424V11H54.29V0.424H52.05ZM61.6858 11V4.248H59.4458V11H61.6858ZM55.8938 0.44V2.68H59.4458H61.6858H65.4138V0.44H55.8938ZM74.7788 0.407999L74.6508 0.584L72.2828 3.816L69.9148 0.584L69.7868 0.407999H67.0188L67.4988 1.08L70.9708 5.816L71.0668 5.96H71.0828V5.976L71.1628 6.088V11H73.4028V6.072L73.4828 5.976V5.96H73.4988L73.5948 5.816L77.0668 1.08L77.5468 0.407999H74.7788Z" fill="white"/>
</svg>
