<svg width="71" height="11" viewBox="0 0 71 11" fill="none" xmlns="http://www.w3.org/2000/svg">
<path d="M1.136 10.376L0.8 11H3.616L3.728 10.792L6.016 6.648L4.608 4.12L1.136 10.376ZM12.688 10.376L8.208 2.296L7.28 0.632L7.184 0.407999H6.64L6.528 0.632L5.616 2.296L5.504 2.504L6.912 5.048L6.944 5.112L7.984 6.984L10.096 10.792L10.208 11H13.024L12.688 10.376ZM20.7046 0.44V6.232C20.7046 7.592 19.6166 8.728 18.2886 8.76C18.2566 8.76 18.2246 8.76 18.1926 8.76C18.1606 8.76 18.1286 8.76 18.0966 8.76C16.7686 8.728 15.6806 7.576 15.6806 6.232V0.44H13.4406V7.032C13.4406 7.896 13.7446 8.696 14.3046 9.304C14.5286 9.544 14.7526 9.752 15.0086 9.944C15.9206 10.632 17.0246 11 18.1926 11C19.3606 11 20.4486 10.632 21.3766 9.944C21.6326 9.752 21.8566 9.544 22.0646 9.32C22.6406 8.712 22.9446 7.896 22.9446 7.048V0.44H20.7046ZM32.7256 6.792L32.6136 7.032C32.1016 8.088 31.0296 8.76 29.8616 8.76C28.4216 8.76 27.1576 7.736 26.8696 6.328C26.8216 6.136 26.8056 5.912 26.8056 5.704C26.8056 5.496 26.8216 5.304 26.8696 5.096C27.1416 3.672 28.4056 2.648 29.8616 2.648C31.0936 2.648 32.1976 3.384 32.6776 4.504L32.7896 4.76H35.1096L34.9496 4.232C34.6456 3.144 33.9736 2.168 33.0776 1.48C32.1496 0.775999 31.0296 0.407999 29.8616 0.407999C28.5816 0.407999 27.3336 0.872 26.3736 1.72C25.4136 2.552 24.7896 3.704 24.6136 4.952C24.5816 5.208 24.5656 5.448 24.5656 5.704C24.5656 5.96 24.5816 6.232 24.6136 6.488C24.7896 7.736 25.4296 8.872 26.3736 9.704C27.3496 10.552 28.5816 11 29.8616 11C30.9976 11 32.0856 10.648 33.0136 9.976C33.9096 9.304 34.5656 8.408 34.9016 7.352L35.0776 6.792H32.7256ZM41.1076 11V4.248H38.8676V11H41.1076ZM35.3156 0.44V2.68H38.8676H41.1076H44.8356V0.44H35.3156ZM46.4406 0.424V11H48.6806V0.424H46.4406ZM55.5484 0.471999C52.6364 0.471999 50.2844 2.84 50.2844 5.736C50.2844 8.648 52.6364 11 55.5484 11C58.4444 11 60.8124 8.648 60.8124 5.736C60.8124 2.84 58.4444 0.471999 55.5484 0.471999ZM58.6044 5.736C58.6044 7.432 57.2284 8.808 55.5484 8.808C53.8524 8.808 52.4764 7.432 52.4764 5.736C52.4764 4.056 53.8524 2.68 55.5484 2.68C57.2284 2.68 58.6044 4.056 58.6044 5.736ZM62.425 11H64.665V7.432L62.425 5.192V11ZM68.745 0.424V6.12L62.969 0.36H62.425V0.632V1.64V2.984L64.665 5.224L66.201 6.76L68.857 9.416L70.441 11H70.985V0.424H68.745Z" fill="white"/>
</svg>
