<svg width="76" height="11" viewBox="0 0 76 11" fill="none" xmlns="http://www.w3.org/2000/svg">
<path d="M8.96 6.792L8.848 7.032C8.336 8.088 7.264 8.76 6.096 8.76C4.656 8.76 3.392 7.736 3.104 6.328C3.056 6.136 3.04 5.912 3.04 5.704C3.04 5.496 3.056 5.304 3.104 5.096C3.376 3.672 4.64 2.648 6.096 2.648C7.328 2.648 8.432 3.384 8.912 4.504L9.024 4.76H11.344L11.184 4.232C10.88 3.144 10.208 2.168 9.312 1.48C8.384 0.775999 7.264 0.407999 6.096 0.407999C4.816 0.407999 3.568 0.872 2.608 1.72C1.648 2.552 1.024 3.704 0.848 4.952C0.816 5.208 0.8 5.448 0.8 5.704C0.8 5.96 0.816 6.232 0.848 6.488C1.024 7.736 1.664 8.872 2.608 9.704C3.584 10.552 4.816 11 6.096 11C7.232 11 8.32 10.648 9.248 9.976C10.144 9.304 10.8 8.408 11.136 7.352L11.312 6.792H8.96ZM18.2203 0.471999C15.3083 0.471999 12.9563 2.84 12.9563 5.736C12.9563 8.648 15.3083 11 18.2203 11C21.1163 11 23.4843 8.648 23.4843 5.736C23.4843 2.84 21.1163 0.471999 18.2203 0.471999ZM21.2763 5.736C21.2763 7.432 19.9003 8.808 18.2203 8.808C16.5243 8.808 15.1483 7.432 15.1483 5.736C15.1483 4.056 16.5243 2.68 18.2203 2.68C19.9003 2.68 21.2763 4.056 21.2763 5.736ZM25.0969 11H27.3369V7.432L25.0969 5.192V11ZM31.4169 0.424V6.12L25.6409 0.36H25.0969V0.632V1.64V2.984L27.3369 5.224L28.8729 6.76L31.5289 9.416L33.1129 11H33.6569V0.424H31.4169ZM41.0451 11V4.248H38.8051V11H41.0451ZM35.2531 0.44V2.68H38.8051H41.0451H44.7731V0.44H35.2531ZM43.7298 10.376L43.3938 11H46.2098L46.3218 10.792L48.6098 6.648L47.2018 4.12L43.7298 10.376ZM55.2818 10.376L50.8018 2.296L49.8738 0.632L49.7778 0.407999H49.2338L49.1218 0.632L48.2098 2.296L48.0978 2.504L49.5058 5.048L49.5378 5.112L50.5778 6.984L52.6898 10.792L52.8018 11H55.6178L55.2818 10.376ZM63.3194 6.792L63.2074 7.032C62.6954 8.088 61.6234 8.76 60.4554 8.76C59.0154 8.76 57.7514 7.736 57.4634 6.328C57.4154 6.136 57.3994 5.912 57.3994 5.704C57.3994 5.496 57.4154 5.304 57.4634 5.096C57.7354 3.672 58.9994 2.648 60.4554 2.648C61.6874 2.648 62.7914 3.384 63.2714 4.504L63.3834 4.76H65.7034L65.5434 4.232C65.2394 3.144 64.5674 2.168 63.6714 1.48C62.7434 0.775999 61.6234 0.407999 60.4554 0.407999C59.1754 0.407999 57.9274 0.872 56.9674 1.72C56.0074 2.552 55.3834 3.704 55.2074 4.952C55.1754 5.208 55.1594 5.448 55.1594 5.704C55.1594 5.96 55.1754 6.232 55.2074 6.488C55.3834 7.736 56.0234 8.872 56.9674 9.704C57.9434 10.552 59.1754 11 60.4554 11C61.5914 11 62.6794 10.648 63.6074 9.976C64.5034 9.304 65.1594 8.408 65.4954 7.352L65.6714 6.792H63.3194ZM71.7014 11V4.248H69.4614V11H71.7014ZM65.9094 0.44V2.68H69.4614H71.7014H75.4294V0.44H65.9094Z" fill="white"/>
</svg>
