<svg width="75" height="11" viewBox="0 0 75 11" fill="none" xmlns="http://www.w3.org/2000/svg">
<path d="M0.8 0.44V0.856V2.68H10.24V0.44H0.8ZM3.04 6.488H9.296V4.248H3.04L0.8 4.232V8.76V9.176V11H10.24V8.76H3.04V6.488ZM11.2644 10.344L10.7844 11H13.5684L13.6964 10.84L15.2164 8.76L13.8244 6.872L11.2644 10.344ZM21.1044 10.344L17.5844 5.544L20.8644 1.112L21.3444 0.44H18.5604L18.4324 0.599999L16.1924 3.656L13.9524 0.599999L13.8244 0.44H11.0244L11.5204 1.096L14.8004 5.544V5.56L16.1924 7.448L17.2644 8.904L18.6884 10.84L18.8164 11H21.6004L21.1044 10.344ZM29.8299 0.599999C29.8299 0.599999 29.6859 0.551999 29.4619 0.504C29.2379 0.471999 28.9979 0.44 28.9979 0.44H23.2219V0.856V2.68H28.4219V2.696H28.7899L28.8059 2.68C28.8219 2.68 28.8379 2.68 28.8539 2.68C29.2859 2.68 29.6219 3.032 29.6219 3.448C29.6219 3.88 29.2859 4.216 28.8539 4.216H25.4619H23.2219V11H25.4619V6.472H29.0779C29.0779 6.472 29.1419 6.472 29.5419 6.376C29.9419 6.28 29.9579 6.264 29.9579 6.264C30.3739 6.088 30.7579 5.832 31.0619 5.496C31.5899 4.952 31.8619 4.216 31.8619 3.448C31.8619 2.136 31.0299 1.016 29.8299 0.599999ZM35.7119 8.76V0.36H33.4719V11H41.8719V8.76H35.7119ZM47.3453 0.471999C44.4333 0.471999 42.0813 2.84 42.0813 5.736C42.0813 8.648 44.4333 11 47.3453 11C50.2413 11 52.6093 8.648 52.6093 5.736C52.6093 2.84 50.2413 0.471999 47.3453 0.471999ZM50.4013 5.736C50.4013 7.432 49.0253 8.808 47.3453 8.808C45.6493 8.808 44.2733 7.432 44.2733 5.736C44.2733 4.056 45.6493 2.68 47.3453 2.68C49.0253 2.68 50.4013 4.056 50.4013 5.736ZM63.6865 10.36L60.6625 5.4C60.6785 5.4 60.6945 5.384 60.7105 5.368L60.7265 5.352C60.7425 5.352 60.7585 5.336 60.7585 5.32C60.7905 5.304 60.8065 5.288 60.8385 5.272C60.8545 5.256 60.8865 5.224 60.9185 5.208C60.9185 5.192 60.9345 5.192 60.9345 5.192C60.9505 5.176 60.9825 5.144 60.9985 5.128C61.0625 5.064 61.1265 5.016 61.2065 4.936C61.9265 4.216 62.4385 3.32 62.6465 2.328C62.7425 1.944 62.7745 1.56 62.7745 1.176C62.7745 1.048 62.7745 0.919999 62.7585 0.808L62.7425 0.407999H53.8625V2.648H58.6625H60.1505C60.0065 2.904 59.8305 3.144 59.6225 3.336C59.3505 3.608 59.0465 3.816 58.6945 3.976C58.6785 3.976 58.6785 3.976 58.6625 3.992C58.2945 4.136 57.8945 4.216 57.4945 4.216H53.8625V11H56.1025V6.472H57.4945C57.5265 6.472 57.5585 6.456 57.5905 6.456H57.6065H57.6225H57.6545C57.6865 6.456 57.7025 6.456 57.7345 6.456C57.7505 6.456 57.7665 6.456 57.7665 6.456C57.7985 6.456 57.8305 6.456 57.8625 6.456H57.8945L57.9105 6.44C57.9425 6.44 57.9745 6.44 58.0225 6.44C58.0545 6.44 58.0865 6.424 58.1345 6.424C58.1505 6.424 58.1665 6.424 58.1825 6.424C58.2145 6.408 58.2465 6.408 58.2785 6.408C58.2945 6.408 58.3105 6.408 58.3265 6.392C58.3425 6.392 58.3745 6.392 58.4065 6.392C58.4705 6.376 58.5345 6.36 58.5985 6.344L61.3185 10.808L61.4465 11H64.0705L63.6865 10.36ZM64.9875 0.44V0.856V2.68H74.4275V0.44H64.9875ZM67.2275 6.488H73.4835V4.248H67.2275L64.9875 4.232V8.76V9.176V11H74.4275V8.76H67.2275V6.488Z" fill="white"/>
</svg>
