<svg width="45" height="11" viewBox="0 0 45 11" fill="none" xmlns="http://www.w3.org/2000/svg">
<path d="M7.904 0.455999V4.264H3.04V0.455999H0.8V11H3.04V6.52H7.904V11H10.144V0.455999H7.904ZM17.0328 0.471999C14.1208 0.471999 11.7688 2.84 11.7688 5.736C11.7688 8.648 14.1208 11 17.0328 11C19.9288 11 22.2968 8.648 22.2968 5.736C22.2968 2.84 19.9288 0.471999 17.0328 0.471999ZM20.0888 5.736C20.0888 7.432 18.7128 8.808 17.0328 8.808C15.3368 8.808 13.9608 7.432 13.9608 5.736C13.9608 4.056 15.3368 2.68 17.0328 2.68C18.7128 2.68 20.0888 4.056 20.0888 5.736ZM23.9094 11H26.1494V7.432L23.9094 5.192V11ZM32.9334 0.36L28.6934 4.6L26.5974 2.504L24.4534 0.36H23.9094V2.984L26.1494 5.224L27.1894 6.264L28.6934 7.768L28.9974 7.48L29.3974 7.064L29.5254 6.936L29.9894 6.488L31.1734 5.288V11H33.4134V0.36H32.9334ZM35.05 0.44V0.856V2.68H44.49V0.44H35.05ZM37.29 6.488H43.546V4.248H37.29L35.05 4.232V8.76V9.176V11H44.49V8.76H37.29V6.488Z" fill="white"/>
</svg>
