<svg width="81" height="11" viewBox="0 0 81 11" fill="none" xmlns="http://www.w3.org/2000/svg">
<path d="M7.04 4.6H4C3.472 4.6 3.04 4.168 3.04 3.64C3.04 3.112 3.472 2.68 4 2.68H7.504C7.856 2.792 8.096 3.112 8.096 3.496H10.288C10.288 3.208 10.256 2.936 10.176 2.68C9.824 1.384 8.64 0.44 7.232 0.44H4C2.848 0.44 1.776 1.048 1.216 2.056C0.944 2.536 0.8 3.08 0.8 3.64C0.8 4.2 0.944 4.744 1.216 5.224C1.344 5.448 1.488 5.64 1.648 5.816C2.256 6.456 3.104 6.84 4 6.84H7.04C7.568 6.84 7.984 7.272 7.984 7.8C7.984 8.328 7.568 8.76 7.04 8.76H3.568C3.232 8.648 2.992 8.328 2.992 7.944H0.8C0.8 8.232 0.832 8.504 0.896 8.76C1.264 10.056 2.448 11 3.856 11H7.04C8.176 11 9.248 10.392 9.808 9.4C10.096 8.904 10.24 8.36 10.24 7.8C10.24 7.24 10.096 6.696 9.808 6.216C9.248 5.224 8.176 4.6 7.04 4.6ZM23.747 0.44L23.635 0.679999L21.235 6.024L19.587 2.392L18.819 0.679999L18.707 0.44H18.163L18.051 0.679999L17.283 2.392L15.651 6.024L13.235 0.679999L13.123 0.44H10.675L10.931 1.032L15.379 11H15.859L18.435 5.304L20.979 11H21.475L22.387 8.936L25.939 1.032L26.211 0.44H23.747ZM23.5735 10.376L23.2375 11H26.0535L26.1655 10.792L28.4535 6.648L27.0455 4.12L23.5735 10.376ZM35.1255 10.376L30.6455 2.296L29.7175 0.632L29.6215 0.407999H29.0775L28.9655 0.632L28.0535 2.296L27.9415 2.504L29.3495 5.048L29.3815 5.112L30.4215 6.984L32.5335 10.792L32.6455 11H35.4615L35.1255 10.376ZM43.1893 0.599999C43.1893 0.599999 43.0453 0.551999 42.8213 0.504C42.5973 0.471999 42.3573 0.44 42.3573 0.44H36.5813V0.856V2.68H41.7813V2.696H42.1493L42.1653 2.68C42.1813 2.68 42.1973 2.68 42.2133 2.68C42.6453 2.68 42.9813 3.032 42.9813 3.448C42.9813 3.88 42.6453 4.216 42.2133 4.216H38.8213H36.5813V11H38.8213V6.472H42.4373C42.4373 6.472 42.5013 6.472 42.9013 6.376C43.3013 6.28 43.3173 6.264 43.3173 6.264C43.7333 6.088 44.1173 5.832 44.4213 5.496C44.9493 4.952 45.2213 4.216 45.2213 3.448C45.2213 2.136 44.3893 1.016 43.1893 0.599999ZM53.4393 0.599999C53.4393 0.599999 53.2953 0.551999 53.0713 0.504C52.8473 0.471999 52.6073 0.44 52.6073 0.44H46.8313V0.856V2.68H52.0313V2.696H52.3993L52.4153 2.68C52.4313 2.68 52.4473 2.68 52.4633 2.68C52.8953 2.68 53.2313 3.032 53.2313 3.448C53.2313 3.88 52.8953 4.216 52.4633 4.216H49.0713H46.8313V11H49.0713V6.472H52.6873C52.6873 6.472 52.7513 6.472 53.1513 6.376C53.5513 6.28 53.5673 6.264 53.5673 6.264C53.9833 6.088 54.3673 5.832 54.6713 5.496C55.1993 4.952 55.4713 4.216 55.4713 3.448C55.4713 2.136 54.6393 1.016 53.4393 0.599999ZM57.0813 0.424V11H59.3213V0.424H57.0813ZM60.925 11H63.165V7.432L60.925 5.192V11ZM67.245 0.424V6.12L61.469 0.36H60.925V0.632V1.64V2.984L63.165 5.224L64.701 6.76L67.357 9.416L68.941 11H69.485V0.424H67.245ZM75.0214 4.264L75.2934 4.872L75.9334 6.264L76.0614 6.52H78.6694V8.76H75.8374C74.2854 8.536 73.1174 7.24 73.1174 5.736C73.1174 4.216 74.2854 2.92 75.8374 2.696H80.8934V0.455999H76.3014C74.8614 0.455999 73.5174 1 72.5094 1.976C71.4694 2.984 70.9094 4.312 70.9094 5.736C70.9094 7.16 71.4694 8.488 72.5094 9.48C73.5174 10.472 74.8614 11 76.3014 11H80.9254V6.52V4.264H75.0214Z" fill="white"/>
</svg>
