<svg width="305" height="22" viewBox="0 0 305 22" fill="none" xmlns="http://www.w3.org/2000/svg">
<path d="M1.272 20.752L0.6 22H6.232L6.456 21.584L11.032 13.296L8.216 8.24L1.272 20.752ZM24.376 20.752L15.416 4.592L13.56 1.264L13.368 0.815998H12.28L12.056 1.264L10.232 4.592L10.008 5.008L12.824 10.096L12.888 10.224L14.968 13.968L19.192 21.584L19.416 22H25.048L24.376 20.752ZM32.1113 17.52V0.719999H27.6313V22H44.4313V17.52H32.1113ZM52.1425 17.52V0.719999H47.6625V22H64.4625V17.52H52.1425ZM97.8263 13.584L97.6023 14.064C96.5783 16.176 94.4343 17.52 92.0983 17.52C89.2183 17.52 86.6903 15.472 86.1143 12.656C86.0183 12.272 85.9863 11.824 85.9863 11.408C85.9863 10.992 86.0183 10.608 86.1143 10.192C86.6583 7.344 89.1863 5.296 92.0983 5.296C94.5623 5.296 96.7703 6.768 97.7303 9.008L97.9543 9.52H102.594L102.274 8.464C101.666 6.288 100.322 4.336 98.5303 2.96C96.6743 1.552 94.4343 0.815998 92.0983 0.815998C89.5383 0.815998 87.0423 1.744 85.1223 3.44C83.2023 5.104 81.9543 7.408 81.6023 9.904C81.5383 10.416 81.5063 10.896 81.5063 11.408C81.5063 11.92 81.5383 12.464 81.6023 12.976C81.9543 15.472 83.2343 17.744 85.1223 19.408C87.0743 21.104 89.5383 22 92.0983 22C94.3703 22 96.5463 21.296 98.4023 19.952C100.194 18.608 101.506 16.816 102.178 14.704L102.53 13.584H97.8263ZM102.272 20.752L101.6 22H107.232L107.456 21.584L112.032 13.296L109.216 8.24L102.272 20.752ZM125.376 20.752L116.416 4.592L114.56 1.264L114.368 0.815998H113.28L113.056 1.264L111.232 4.592L111.008 5.008L113.824 10.096L113.888 10.224L115.968 13.968L120.192 21.584L120.416 22H126.048L125.376 20.752ZM133.528 22V8.496H129.048V22H133.528ZM121.944 0.879999V5.36H129.048H133.528H140.984V0.879999H121.944ZM144.194 0.879999V1.712V5.36H163.074V0.879999H144.194ZM148.674 12.976H161.186V8.496H148.674L144.194 8.464V17.52V18.352V22H163.074V17.52H148.674V12.976ZM185.936 20.72L179.888 10.8C179.92 10.8 179.952 10.768 179.984 10.736L180.016 10.704C180.048 10.704 180.08 10.672 180.08 10.64C180.144 10.608 180.176 10.576 180.24 10.544C180.272 10.512 180.336 10.448 180.4 10.416C180.4 10.384 180.432 10.384 180.432 10.384C180.464 10.352 180.528 10.288 180.56 10.256C180.688 10.128 180.816 10.032 180.976 9.872C182.416 8.432 183.44 6.64 183.856 4.656C184.048 3.888 184.112 3.12 184.112 2.352C184.112 2.096 184.112 1.84 184.08 1.616L184.048 0.815998H166.288V5.296H175.888H178.864C178.576 5.808 178.224 6.288 177.808 6.672C177.264 7.216 176.656 7.632 175.952 7.952C175.92 7.952 175.92 7.952 175.888 7.984C175.152 8.272 174.352 8.432 173.552 8.432H166.288V22H170.768V12.944H173.552C173.616 12.944 173.68 12.912 173.744 12.912H173.776H173.808H173.872C173.936 12.912 173.968 12.912 174.032 12.912C174.064 12.912 174.095 12.912 174.095 12.912C174.16 12.912 174.224 12.912 174.288 12.912H174.352L174.384 12.88C174.448 12.88 174.512 12.88 174.608 12.88C174.672 12.88 174.736 12.848 174.832 12.848C174.864 12.848 174.896 12.848 174.928 12.848C174.992 12.816 175.056 12.816 175.12 12.816C175.152 12.816 175.184 12.816 175.216 12.784C175.248 12.784 175.312 12.784 175.376 12.784C175.504 12.752 175.632 12.72 175.76 12.688L181.2 21.616L181.456 22H186.704L185.936 20.72ZM194.637 8.528L195.181 9.744L196.461 12.528L196.717 13.04H201.933V17.52H196.269C193.165 17.072 190.829 14.48 190.829 11.472C190.829 8.432 193.165 5.84 196.269 5.392H206.381V0.911999H197.197C194.317 0.911999 191.629 2 189.613 3.952C187.533 5.968 186.413 8.624 186.413 11.472C186.413 14.32 187.533 16.976 189.613 18.96C191.629 20.944 194.317 22 197.197 22H206.445V13.04V8.528H194.637ZM220.159 0.943998C214.335 0.943998 209.631 5.68 209.631 11.472C209.631 17.296 214.335 22 220.159 22C225.951 22 230.687 17.296 230.687 11.472C230.687 5.68 225.951 0.943998 220.159 0.943998ZM226.271 11.472C226.271 14.864 223.519 17.616 220.159 17.616C216.767 17.616 214.015 14.864 214.015 11.472C214.015 8.112 216.767 5.36 220.159 5.36C223.519 5.36 226.271 8.112 226.271 11.472ZM252.842 20.72L246.794 10.8C246.826 10.8 246.858 10.768 246.89 10.736L246.922 10.704C246.954 10.704 246.986 10.672 246.986 10.64C247.05 10.608 247.082 10.576 247.146 10.544C247.178 10.512 247.242 10.448 247.306 10.416C247.306 10.384 247.338 10.384 247.338 10.384C247.37 10.352 247.434 10.288 247.466 10.256C247.594 10.128 247.722 10.032 247.882 9.872C249.322 8.432 250.346 6.64 250.762 4.656C250.954 3.888 251.018 3.12 251.018 2.352C251.018 2.096 251.018 1.84 250.986 1.616L250.954 0.815998H233.194V5.296H242.794H245.77C245.482 5.808 245.13 6.288 244.714 6.672C244.17 7.216 243.562 7.632 242.858 7.952C242.826 7.952 242.826 7.952 242.794 7.984C242.058 8.272 241.258 8.432 240.458 8.432H233.194V22H237.674V12.944H240.458C240.522 12.944 240.586 12.912 240.65 12.912H240.682H240.714H240.778C240.842 12.912 240.874 12.912 240.938 12.912C240.97 12.912 241.002 12.912 241.002 12.912C241.066 12.912 241.13 12.912 241.194 12.912H241.258L241.29 12.88C241.354 12.88 241.418 12.88 241.514 12.88C241.578 12.88 241.642 12.848 241.738 12.848C241.77 12.848 241.802 12.848 241.834 12.848C241.898 12.816 241.962 12.816 242.026 12.816C242.058 12.816 242.09 12.816 242.122 12.784C242.154 12.784 242.218 12.784 242.282 12.784C242.41 12.752 242.538 12.72 242.666 12.688L248.106 21.616L248.362 22H253.61L252.842 20.72ZM256.85 0.848V22H261.33V0.848H256.85ZM264.538 0.879999V1.712V5.36H283.418V0.879999H264.538ZM269.018 12.976H281.53V8.496H269.018L264.538 8.464V17.52V18.352V22H283.418V17.52H269.018V12.976ZM297.705 9.2H291.625C290.569 9.2 289.705 8.336 289.705 7.28C289.705 6.224 290.569 5.36 291.625 5.36H298.633C299.337 5.584 299.817 6.224 299.817 6.992H304.201C304.201 6.416 304.137 5.872 303.977 5.36C303.273 2.768 300.905 0.879999 298.089 0.879999H291.625C289.321 0.879999 287.177 2.096 286.057 4.112C285.513 5.072 285.225 6.16 285.225 7.28C285.225 8.4 285.513 9.488 286.057 10.448C286.313 10.896 286.601 11.28 286.921 11.632C288.137 12.912 289.833 13.68 291.625 13.68H297.705C298.761 13.68 299.593 14.544 299.593 15.6C299.593 16.656 298.761 17.52 297.705 17.52H290.761C290.089 17.296 289.609 16.656 289.609 15.888H285.225C285.225 16.464 285.289 17.008 285.417 17.52C286.153 20.112 288.521 22 291.337 22H297.705C299.977 22 302.121 20.784 303.241 18.8C303.817 17.808 304.105 16.72 304.105 15.6C304.105 14.48 303.817 13.392 303.241 12.432C302.121 10.448 299.977 9.2 297.705 9.2Z" fill="white"/>
</svg>
