<svg width="270" height="23" viewBox="0 0 270 23" fill="none" xmlns="http://www.w3.org/2000/svg">
<path d="M5.46 18.24V0.389999H0.7V23H18.55V18.24H5.46ZM21.9832 0.526V23H26.7432V0.526H21.9832ZM36.2712 0.865999L36.1012 0.559999H30.1512L30.7972 1.716L38.1412 15.01L41.1332 9.638L36.2712 0.865999ZM49.9732 0.559999L49.8032 0.865999L44.6012 10.284L43.6152 12.052L43.0372 13.072L40.0452 18.444L42.4592 23H43.7172L55.3112 1.716L55.9572 0.559999H49.9732ZM58.6395 0.559999V1.444V5.32H78.6995V0.559999H58.6395ZM63.3995 13.412H76.6935V8.652H63.3995L58.6395 8.618V18.24V19.124V23H78.6995V18.24H63.3995V13.412ZM97.5038 21.674L96.7898 23H102.774L103.012 22.558L107.874 13.752L104.882 8.38L97.5038 21.674ZM122.052 21.674L112.532 4.504L110.56 0.968L110.356 0.491998H109.2L108.962 0.968L107.024 4.504L106.786 4.946L109.778 10.352L109.846 10.488L112.056 14.466L116.544 22.558L116.782 23H122.766L122.052 21.674ZM139.087 0.559999V12.868C139.087 15.758 136.775 18.172 133.953 18.24C133.885 18.24 133.817 18.24 133.749 18.24C133.681 18.24 133.613 18.24 133.545 18.24C130.723 18.172 128.411 15.724 128.411 12.868V0.559999H123.651V14.568C123.651 16.404 124.297 18.104 125.487 19.396C125.963 19.906 126.439 20.348 126.983 20.756C128.921 22.218 131.267 23 133.749 23C136.231 23 138.543 22.218 140.515 20.756C141.059 20.348 141.535 19.906 141.977 19.43C143.201 18.138 143.847 16.404 143.847 14.602V0.559999H139.087ZM164.632 14.058L164.394 14.568C163.306 16.812 161.028 18.24 158.546 18.24C155.486 18.24 152.8 16.064 152.188 13.072C152.086 12.664 152.052 12.188 152.052 11.746C152.052 11.304 152.086 10.896 152.188 10.454C152.766 7.428 155.452 5.252 158.546 5.252C161.164 5.252 163.51 6.816 164.53 9.196L164.768 9.74H169.698L169.358 8.618C168.712 6.306 167.284 4.232 165.38 2.77C163.408 1.274 161.028 0.491998 158.546 0.491998C155.826 0.491998 153.174 1.478 151.134 3.28C149.094 5.048 147.768 7.496 147.394 10.148C147.326 10.692 147.292 11.202 147.292 11.746C147.292 12.29 147.326 12.868 147.394 13.412C147.768 16.064 149.128 18.478 151.134 20.246C153.208 22.048 155.826 23 158.546 23C160.96 23 163.272 22.252 165.244 20.824C167.148 19.396 168.542 17.492 169.256 15.248L169.63 14.058H164.632ZM182.444 23V8.652H177.684V23H182.444ZM170.136 0.559999V5.32H177.684H182.444H190.366V0.559999H170.136ZM193.776 0.526V23H198.536V0.526H193.776ZM213.13 0.627998C206.942 0.627998 201.944 5.66 201.944 11.814C201.944 18.002 206.942 23 213.13 23C219.284 23 224.316 18.002 224.316 11.814C224.316 5.66 219.284 0.627998 213.13 0.627998ZM219.624 11.814C219.624 15.418 216.7 18.342 213.13 18.342C209.526 18.342 206.602 15.418 206.602 11.814C206.602 8.244 209.526 5.32 213.13 5.32C216.7 5.32 219.624 8.244 219.624 11.814ZM227.743 23H232.503V15.418L227.743 10.658V23ZM241.173 0.526V12.63L228.899 0.389999H227.743V0.968V3.11V5.966L232.503 10.726L235.767 13.99L241.411 19.634L244.777 23H245.933V0.526H241.173ZM262.585 9.4H256.125C255.003 9.4 254.085 8.482 254.085 7.36C254.085 6.238 255.003 5.32 256.125 5.32H263.571C264.319 5.558 264.829 6.238 264.829 7.054H269.487C269.487 6.442 269.419 5.864 269.249 5.32C268.501 2.566 265.985 0.559999 262.993 0.559999H256.125C253.677 0.559999 251.399 1.852 250.209 3.994C249.631 5.014 249.325 6.17 249.325 7.36C249.325 8.55 249.631 9.706 250.209 10.726C250.481 11.202 250.787 11.61 251.127 11.984C252.419 13.344 254.221 14.16 256.125 14.16H262.585C263.707 14.16 264.591 15.078 264.591 16.2C264.591 17.322 263.707 18.24 262.585 18.24H255.207C254.493 18.002 253.983 17.322 253.983 16.506H249.325C249.325 17.118 249.393 17.696 249.529 18.24C250.311 20.994 252.827 23 255.819 23H262.585C264.999 23 267.277 21.708 268.467 19.6C269.079 18.546 269.385 17.39 269.385 16.2C269.385 15.01 269.079 13.854 268.467 12.834C267.277 10.726 264.999 9.4 262.585 9.4Z" fill="white"/>
</svg>
