<svg width="183" height="23" viewBox="0 0 183 23" fill="none" xmlns="http://www.w3.org/2000/svg">
<path d="M13.008 23V8.652H8.248V23H13.008ZM0.7 0.559999V5.32H8.248H13.008H20.93V0.559999H0.7ZM33.2688 0.627998C27.0808 0.627998 22.0828 5.66 22.0828 11.814C22.0828 18.002 27.0808 23 33.2688 23C39.4228 23 44.4548 18.002 44.4548 11.814C44.4548 5.66 39.4228 0.627998 33.2688 0.627998ZM39.7628 11.814C39.7628 15.418 36.8388 18.342 33.2688 18.342C29.6648 18.342 26.7408 15.418 26.7408 11.814C26.7408 8.244 29.6648 5.32 33.2688 5.32C36.8388 5.32 39.7628 8.244 39.7628 11.814ZM61.16 0.899999C61.16 0.899999 60.854 0.797998 60.378 0.695999C59.902 0.627998 59.392 0.559999 59.392 0.559999H47.118V1.444V5.32H58.168V5.354H58.95L58.984 5.32C59.018 5.32 59.052 5.32 59.086 5.32C60.004 5.32 60.718 6.068 60.718 6.952C60.718 7.87 60.004 8.584 59.086 8.584H51.878H47.118V23H51.878V13.378H59.562C59.562 13.378 59.698 13.378 60.548 13.174C61.398 12.97 61.432 12.936 61.432 12.936C62.316 12.562 63.132 12.018 63.778 11.304C64.9 10.148 65.478 8.584 65.478 6.952C65.478 4.164 63.71 1.784 61.16 0.899999ZM97.617 0.899999C97.617 0.899999 97.311 0.797998 96.835 0.695999C96.359 0.627998 95.849 0.559999 95.849 0.559999H83.575V1.444V5.32H94.625V5.354H95.407L95.441 5.32C95.475 5.32 95.509 5.32 95.543 5.32C96.461 5.32 97.175 6.068 97.175 6.952C97.175 7.87 96.461 8.584 95.543 8.584H88.335H83.575V23H88.335V13.378H96.019C96.019 13.378 96.155 13.378 97.005 13.174C97.855 12.97 97.889 12.936 97.889 12.936C98.773 12.562 99.589 12.018 100.235 11.304C101.357 10.148 101.935 8.584 101.935 6.952C101.935 4.164 100.167 1.784 97.617 0.899999ZM105.356 0.526V23H110.116V0.526H105.356ZM130.864 14.058L130.626 14.568C129.538 16.812 127.26 18.24 124.778 18.24C121.718 18.24 119.032 16.064 118.42 13.072C118.318 12.664 118.284 12.188 118.284 11.746C118.284 11.304 118.318 10.896 118.42 10.454C118.998 7.428 121.684 5.252 124.778 5.252C127.396 5.252 129.742 6.816 130.762 9.196L131 9.74H135.93L135.59 8.618C134.944 6.306 133.516 4.232 131.612 2.77C129.64 1.274 127.26 0.491998 124.778 0.491998C122.058 0.491998 119.406 1.478 117.366 3.28C115.326 5.048 114 7.496 113.626 10.148C113.558 10.692 113.524 11.202 113.524 11.746C113.524 12.29 113.558 12.868 113.626 13.412C114 16.064 115.36 18.478 117.366 20.246C119.44 22.048 122.058 23 124.778 23C127.192 23 129.504 22.252 131.476 20.824C133.38 19.396 134.774 17.492 135.488 15.248L135.862 14.058H130.864ZM144.116 0.559999H139.356V10.624L144.116 5.864V0.559999ZM159.314 21.504L149.624 11.78L159.314 2.09L160.844 0.559999H154.112L147.006 7.632V7.666L139.356 15.316V23H144.116V17.288L146.258 15.146L153.84 22.762L154.112 23H160.844L159.314 21.504ZM176.058 9.4H169.598C168.476 9.4 167.558 8.482 167.558 7.36C167.558 6.238 168.476 5.32 169.598 5.32H177.044C177.792 5.558 178.302 6.238 178.302 7.054H182.96C182.96 6.442 182.892 5.864 182.722 5.32C181.974 2.566 179.458 0.559999 176.466 0.559999H169.598C167.15 0.559999 164.872 1.852 163.682 3.994C163.104 5.014 162.798 6.17 162.798 7.36C162.798 8.55 163.104 9.706 163.682 10.726C163.954 11.202 164.26 11.61 164.6 11.984C165.892 13.344 167.694 14.16 169.598 14.16H176.058C177.18 14.16 178.064 15.078 178.064 16.2C178.064 17.322 177.18 18.24 176.058 18.24H168.68C167.966 18.002 167.456 17.322 167.456 16.506H162.798C162.798 17.118 162.866 17.696 163.002 18.24C163.784 20.994 166.3 23 169.292 23H176.058C178.472 23 180.75 21.708 181.94 19.6C182.552 18.546 182.858 17.39 182.858 16.2C182.858 15.01 182.552 13.854 181.94 12.834C180.75 10.726 178.472 9.4 176.058 9.4Z" fill="white"/>
</svg>
