<svg width="219" height="23" viewBox="0 0 219 23" fill="none" xmlns="http://www.w3.org/2000/svg">
<path d="M13.008 23V8.652H8.248V23H13.008ZM0.7 0.559999V5.32H8.248H13.008H20.93V0.559999H0.7ZM33.2688 0.627998C27.0808 0.627998 22.0828 5.66 22.0828 11.814C22.0828 18.002 27.0808 23 33.2688 23C39.4228 23 44.4548 18.002 44.4548 11.814C44.4548 5.66 39.4228 0.627998 33.2688 0.627998ZM39.7628 11.814C39.7628 15.418 36.8388 18.342 33.2688 18.342C29.6648 18.342 26.7408 15.418 26.7408 11.814C26.7408 8.244 29.6648 5.32 33.2688 5.32C36.8388 5.32 39.7628 8.244 39.7628 11.814ZM61.16 0.899999C61.16 0.899999 60.854 0.797998 60.378 0.695999C59.902 0.627998 59.392 0.559999 59.392 0.559999H47.118V1.444V5.32H58.168V5.354H58.95L58.984 5.32C59.018 5.32 59.052 5.32 59.086 5.32C60.004 5.32 60.718 6.068 60.718 6.952C60.718 7.87 60.004 8.584 59.086 8.584H51.878H47.118V23H51.878V13.378H59.562C59.562 13.378 59.698 13.378 60.548 13.174C61.398 12.97 61.432 12.936 61.432 12.936C62.316 12.562 63.132 12.018 63.778 11.304C64.9 10.148 65.478 8.584 65.478 6.952C65.478 4.164 63.71 1.784 61.16 0.899999ZM96.835 9.4H90.375C89.253 9.4 88.335 8.482 88.335 7.36C88.335 6.238 89.253 5.32 90.375 5.32H97.821C98.569 5.558 99.079 6.238 99.079 7.054H103.737C103.737 6.442 103.669 5.864 103.499 5.32C102.751 2.566 100.235 0.559999 97.243 0.559999H90.375C87.927 0.559999 85.649 1.852 84.459 3.994C83.881 5.014 83.575 6.17 83.575 7.36C83.575 8.55 83.881 9.706 84.459 10.726C84.731 11.202 85.037 11.61 85.377 11.984C86.669 13.344 88.471 14.16 90.375 14.16H96.835C97.957 14.16 98.841 15.078 98.841 16.2C98.841 17.322 97.957 18.24 96.835 18.24H89.457C88.743 18.002 88.233 17.322 88.233 16.506H83.575C83.575 17.118 83.643 17.696 83.779 18.24C84.561 20.994 87.077 23 90.069 23H96.835C99.249 23 101.527 21.708 102.717 19.6C103.329 18.546 103.635 17.39 103.635 16.2C103.635 15.01 103.329 13.854 102.717 12.834C101.527 10.726 99.249 9.4 96.835 9.4ZM107.182 0.559999V1.444V5.32H127.242V0.559999H107.182ZM111.942 13.412H125.236V8.652H111.942L107.182 8.618V18.24V19.124V23H127.242V18.24H111.942V13.412ZM135.417 18.24V0.389999H130.657V23H148.507V18.24H135.417ZM156.7 18.24V0.389999H151.94V23H169.79V18.24H156.7ZM173.223 0.559999V1.444V5.32H193.283V0.559999H173.223ZM177.983 13.412H191.277V8.652H177.983L173.223 8.618V18.24V19.124V23H193.283V18.24H177.983V13.412ZM217.574 21.64L211.148 11.1C211.182 11.1 211.216 11.066 211.25 11.032L211.284 10.998C211.318 10.998 211.352 10.964 211.352 10.93C211.42 10.896 211.454 10.862 211.522 10.828C211.556 10.794 211.624 10.726 211.692 10.692C211.692 10.658 211.726 10.658 211.726 10.658C211.76 10.624 211.828 10.556 211.862 10.522C211.998 10.386 212.134 10.284 212.304 10.114C213.834 8.584 214.922 6.68 215.364 4.572C215.568 3.756 215.636 2.94 215.636 2.124C215.636 1.852 215.636 1.58 215.602 1.342L215.568 0.491998H196.698V5.252H206.898H210.06C209.754 5.796 209.38 6.306 208.938 6.714C208.36 7.292 207.714 7.734 206.966 8.074C206.932 8.074 206.932 8.074 206.898 8.108C206.116 8.414 205.266 8.584 204.416 8.584H196.698V23H201.458V13.378H204.416C204.484 13.378 204.552 13.344 204.62 13.344H204.654H204.688H204.756C204.824 13.344 204.858 13.344 204.926 13.344C204.96 13.344 204.994 13.344 204.994 13.344C205.062 13.344 205.13 13.344 205.198 13.344H205.266L205.3 13.31C205.368 13.31 205.436 13.31 205.538 13.31C205.606 13.31 205.674 13.276 205.776 13.276C205.81 13.276 205.844 13.276 205.878 13.276C205.946 13.242 206.014 13.242 206.082 13.242C206.116 13.242 206.15 13.242 206.184 13.208C206.218 13.208 206.286 13.208 206.354 13.208C206.49 13.174 206.626 13.14 206.762 13.106L212.542 22.592L212.814 23H218.39L217.574 21.64Z" fill="white"/>
</svg>
